<?xml version="1.0" encoding="UTF-8" standalone="no"?>
<!-- Created with Inkscape (http://www.inkscape.org/) -->

<svg
   width="12.401962mm"
   height="16.010307mm"
   viewBox="0 0 12.401962 16.010307"
   version="1.1"
   id="svg1633"
   inkscape:version="1.2.2 (b0a8486541, 2022-12-01)"
   sodipodi:docname="platform_top_scrorer_silver.svg"
   xmlns:inkscape="http://www.inkscape.org/namespaces/inkscape"
   xmlns:sodipodi="http://sodipodi.sourceforge.net/DTD/sodipodi-0.dtd"
   xmlns="http://www.w3.org/2000/svg"
   xmlns:svg="http://www.w3.org/2000/svg">
  <sodipodi:namedview
     id="namedview1635"
     pagecolor="#ffffff"
     bordercolor="#666666"
     borderopacity="1.0"
     inkscape:showpageshadow="2"
     inkscape:pageopacity="0.0"
     inkscape:pagecheckerboard="0"
     inkscape:deskcolor="#d1d1d1"
     inkscape:document-units="mm"
     showgrid="false"
     inkscape:zoom="0.73673541"
     inkscape:cx="73.974997"
     inkscape:cy="349.5149"
     inkscape:window-width="1920"
     inkscape:window-height="1052"
     inkscape:window-x="3840"
     inkscape:window-y="0"
     inkscape:window-maximized="1"
     inkscape:current-layer="layer1" />
  <defs
     id="defs1630" />
  <g
     inkscape:label="Ebene 1"
     inkscape:groupmode="layer"
     id="layer1"
     transform="translate(-43,-56)">
    <g
       id="g744"
       transform="translate(-10.295865,51.702197)">
      <path
         d="m 63.544694,6.3852976 c -6e-4,0 -10e-4,-1.86e-4 -0.002,-1.86e-4 -1.8e-4,0 -6e-4,0 -6.9e-4,0 -0.24128,-0.0014 -0.43739,-0.198205 -0.43739,-0.439976 0,-0.242741 0.19756,-0.440135 0.44015,-0.440135 0.24273,0 0.44013,0.197394 0.44013,0.440135 0,0.242582 -0.1974,0.440141 -0.44013,0.440141 z m -1.14099,3.266536 c 0,0.0526 -0.0428,0.09538 -0.0952,0.09538 H 56.68521 c -0.05253,0 -0.09528,-0.04277 -0.09528,-0.09538 v -0.602881 c 0.0021,0 0.0041,0 0.0062,0 h 5.807894 z m -7.394905,-3.706678 c 0,-0.242734 0.197442,-0.440134 0.440121,-0.440134 0.242672,0 0.440121,0.1974 0.440121,0.440134 0,0.241771 -0.195929,0.438519 -0.437309,0.439977 -2.4e-4,0 -5.98e-4,0 -6.87e-4,0 -5.98e-4,0 -0.0014,1.85e-4 -0.0021,1.85e-4 -0.242672,0 -0.440121,-0.197559 -0.440121,-0.440134 z m 2.715942,1.327699 c 0.01238,0.0062 0.02565,0.0097 0.03885,0.0097 0.02661,0 0.05253,-0.01279 0.06855,-0.03596 l 1.368666,-1.979323 c 0.08761,0.04923 0.188654,0.07741 0.296015,0.07741 0.107526,0 0.208409,-0.02819 0.296022,-0.07741 l 0.712345,1.030226 c 1.86e-4,0 1.86e-4,0 1.86e-4,1.86e-4 l 0.656155,0.948932 c 0.01623,0.02317 0.04208,0.03596 0.06869,0.03596 0.01313,0 0.02654,-0.0034 0.03885,-0.0097 l 1.801194,-0.950397 c 0.0868,0.109148 0.21019,0.187685 0.35173,0.216832 l -0.98975,2.342379 c -0.004,-1.86e-4 -0.008,-1.86e-4 -0.0126,-1.86e-4 -0.0442,-2.96e-4 -0.10865,-5.98e-4 -0.190762,-5.98e-4 -0.164039,-5.98e-4 -0.397875,-5.98e-4 -0.678502,-6.88e-4 -0.56078,-1.78e-4 -1.308268,-1.78e-4 -2.055598,3.03e-4 -1.275552,5.98e-4 -2.550336,0.0014 -2.896504,0.0021 h -0.03637 l -0.989995,-2.343025 c 0.141382,-0.02915 0.264812,-0.107849 0.351669,-0.216832 z m -0.476606,-1.606545 c 0.0028,0 0.0055,1.79e-4 0.0081,1.79e-4 0.09979,0 0.198585,-0.02475 0.288721,-0.07368 0.01678,-0.0092 0.03294,-0.01911 0.04861,-0.0295 l 0.716457,0.699398 -0.572854,0.828294 -0.650621,-0.343301 z m -0.414728,-0.731784 c 0.05659,-0.191081 0.23231,-0.315123 0.422209,-0.315123 0.04133,0 0.08323,0.0055 0.124772,0.01815 0.112724,0.03335 0.205693,0.108661 0.26178,0.211971 0.05611,0.103318 0.06862,0.222175 0.03527,0.334878 -0.03342,0.112869 -0.108667,0.205817 -0.211971,0.261849 -0.103311,0.05618 -0.222286,0.06862 -0.33499,0.03527 -0.232667,-0.06899 -0.365943,-0.314312 -0.297039,-0.547007 z m 2.663417,-0.636723 c 0.24274,0 0.440134,0.1974 0.440134,0.440141 0,0.242734 -0.197394,0.440134 -0.440134,0.440134 -0.242741,0 -0.440142,-0.1974 -0.440142,-0.440134 0,-0.242741 0.197401,-0.440141 0.440142,-0.440141 z m 1.903207,1.265513 c 0.01568,0.01038 0.0319,0.02028 0.04854,0.0295 0.0902,0.04889 0.188978,0.07368 0.288734,0.07368 0.0028,0 0.0055,-1.86e-4 0.0081,-1.86e-4 l 0.161612,1.081555 -0.65049,0.343143 -0.572923,-0.828459 z m 0.213271,-0.925774 c 0.04132,-0.01231 0.08356,-0.01829 0.125499,-0.01829 0.07238,0 0.144119,0.01795 0.209544,0.05343 0.103152,0.05618 0.17845,0.149138 0.211812,0.261848 0.03349,0.112704 0.0209,0.231719 -0.03514,0.335037 -0.05618,0.10331 -0.149138,0.178615 -0.261848,0.21197 -0.112711,0.03335 -0.231726,0.0209 -0.335043,-0.03527 -0.103153,-0.05604 -0.178452,-0.148981 -0.211814,-0.261849 -0.06898,-0.23253 0.06429,-0.478021 0.296992,-0.546849"
         style="fill:#c0c0c0;fill-opacity:1;fill-rule:nonzero;stroke:none;stroke-width:0.00161935"
         id="path2190-6-7-2" />
      <g
         id="g70217-2-8-8-3-3"
         style="fill:#c0c0c0;fill-opacity:1"
         transform="matrix(0.49745995,0,0,0.49745995,49.492306,-77.008466)">
        <path
           d="m 30.778322,189.25625 c -0.72805,0.50763 -0.84554,1.06044 -0.86412,1.21358 -0.11548,0.0683 -0.22293,0.12854 -0.32134,0.18177 0.15414,-0.25708 0.30025,-0.51868 0.43432,-0.7858 0.22293,-0.45591 0.41624,-0.92487 0.57842,-1.40438 0.0181,-0.0527 0.0356,-0.10544 0.0527,-0.15816 0.12602,-0.39465 0.30879,-0.76922 0.55281,-1.10362 0.0165,-0.0221 0.0326,-0.0447 0.0482,-0.0668 l -5.7e-4,4.9e-4 c 2.03904,-1.11617 1.10363,-3.3917 1.10363,-3.3917 0.0306,0.5026 -0.45441,0.88571 -0.953,1.80205 -0.42377,0.77976 -0.28167,1.32655 -0.22996,1.47216 -0.10444,0.16067 -0.20185,0.30176 -0.28619,0.41876 0.0336,-0.14662 0.0643,-0.29374 0.0929,-0.44085 0.0969,-0.49608 0.15063,-0.99969 0.17524,-1.5033 l 0.008,-0.18929 c 0.004,-0.0628 0.006,-0.12552 0.004,-0.18879 l -5.7e-4,-0.37809 c -0.003,-0.12603 -0.0111,-0.25155 -0.016,-0.37757 -0.004,-0.0628 -0.004,-0.12603 -0.01,-0.1888 l -0.0176,-0.18778 v 0 c -0.0111,-0.12453 -0.004,-0.25055 0.0206,-0.37307 l 0.14561,-0.71901 v 5e-4 c 1.48622,-1.78698 -0.21942,-3.55991 -0.21942,-3.55991 0.21289,0.45591 -0.0969,0.99065 -0.22444,2.02599 -0.10795,0.88119 0.22494,1.3371 0.32687,1.45358 -0.0422,0.20888 -0.0854,0.39114 -0.12402,0.53976 l -0.0166,-0.11698 c -0.0145,-0.12503 -0.0437,-0.24754 -0.0663,-0.37156 l -0.0356,-0.18478 c -0.0115,-0.0618 -0.0236,-0.12351 -0.0397,-0.18426 -0.0608,-0.24403 -0.11598,-0.48906 -0.19381,-0.72856 l -0.0547,-0.18025 -0.0271,-0.0899 -0.0316,-0.0889 -0.12653,-0.35448 c -0.0803,-0.20587 -0.16419,-0.41073 -0.25406,-0.61257 -0.16068,-0.36252 -0.2611,-0.75014 -0.28319,-1.1458 -0.006,-0.0919 -0.0125,-0.18226 -0.0216,-0.27063 l 5.7e-4,4.9e-4 c 0.79984,-2.18213 -1.40238,-3.27973 -1.40238,-3.27973 0.35398,0.358 0.24151,0.96605 0.46896,1.98381 0.19432,0.86612 0.66127,1.18396 0.79584,1.25978 0.0427,0.29624 0.0658,0.54427 0.0778,0.718 -0.004,-0.006 -0.006,-0.0125 -0.0101,-0.0186 l -0.0889,-0.1657 c -0.0297,-0.0547 -0.0643,-0.10745 -0.0959,-0.16117 l -0.19432,-0.32134 -0.20937,-0.31131 c -0.0356,-0.0517 -0.0693,-0.10444 -0.10594,-0.15514 l -0.11191,-0.15012 c -0.11548,-0.16068 -0.23749,-0.31583 -0.36402,-0.46796 l 5e-4,5e-4 c -0.17624,-0.22344 -0.41724,-0.54529 -0.62662,-0.77826 -0.0984,-0.10895 -0.18477,-0.22896 -0.24754,-0.36201 -0.91634,-1.9311 -3.1537,-1.38832 -3.1537,-1.38832 0.5026,0.0321 0.82244,0.56135 1.66949,1.1694 0.6698,0.48101 1.20053,0.45239 1.39384,0.41925 0.0231,0.008 0.0512,0.0166 0.0748,0.0241 l 0.25608,0.26813 c 0.3344,0.36804 0.65474,0.74913 0.93491,1.15985 l 0.10745,0.15164 c 0.0346,0.0517 0.0673,0.10444 0.10093,0.15666 l 0.19934,0.31431 0.0843,0.14762 c -0.22243,-0.18879 -0.44637,-0.35348 -0.66829,-0.49607 l 7.1e-4,4.9e-4 c -1.20656,-1.98681 -3.43791,-0.95048 -3.43791,-0.95048 0.5006,-0.0532 0.9053,0.41424 1.84272,0.87115 0.79834,0.38863 1.3381,0.22193 1.48121,0.16369 0.31933,0.18728 0.58495,0.37055 0.73859,0.48101 0.0969,0.0698 0.17875,0.15967 0.23298,0.26612 0,5e-4 5.7e-4,7.1e-4 5.7e-4,0.001 l 0.0839,0.16619 c 0.23147,0.43834 0.41774,0.89877 0.58545,1.36422 l 0.11599,0.35197 0.0291,0.0884 0.0241,0.0894 0.0492,0.17875 c 0.0708,0.23699 0.119,0.48001 0.17222,0.72102 0.0145,0.0598 0.0246,0.121 0.0346,0.18176 l 5.7e-4,0.004 c -0.15062,-0.23147 -0.30879,-0.44286 -0.47047,-0.63416 l 5.7e-4,5e-4 c -0.57259,-2.25293 -3.0098,-1.91451 -3.0098,-1.91451 0.49457,0.0954 0.74512,0.66076 1.50781,1.37174 0.64923,0.60554 1.21409,0.60403 1.36824,0.58997 0.17473,0.1903 0.31783,0.36051 0.42377,0.49206 0.14661,0.18277 0.24352,0.40269 0.26511,0.63567 0,0.001 0,0.003 0,0.004 l 0.0422,0.36754 0.0105,0.0919 0.006,0.0924 0.012,0.18478 0.012,0.18427 c 0.004,0.0618 0.004,0.12302 0.006,0.18477 0.002,0.12352 0.006,0.24654 0.006,0.36956 l -0.009,0.36954 c -5.7e-4,0.0613 -0.004,0.12302 -0.009,0.18428 l -0.013,0.18426 c -0.0201,0.26562 -0.0482,0.53123 -0.0869,0.79483 -0.0527,-0.22143 -0.11398,-0.43231 -0.18327,-0.63063 l 5.7e-4,4.9e-4 c 0.26906,-2.30866 -2.12798,-2.86248 -2.12798,-2.86248 0.42779,0.26561 0.45993,0.88319 0.91835,1.81962 0.39063,0.79734 0.91885,0.99767 1.06747,1.03985 0.0572,0.14361 0.10645,0.27616 0.14762,0.39365 0.10142,0.28871 0.12301,0.60052 0.0572,0.89876 -5.7e-4,0.001 -7.1e-4,0.004 -0.001,0.004 -0.10495,0.48001 -0.23449,0.95449 -0.4052,1.41442 -0.16972,0.46043 -0.36754,0.90931 -0.59399,1.34363 -0.0673,0.12553 -0.13758,0.24955 -0.20988,0.37307 0.0417,-0.2606 0.0653,-0.51115 0.0743,-0.75165 v 7.1e-4 c 1.09659,-2.04958 -0.93089,-3.44341 -0.93089,-3.44341 0.30076,0.40419 0.10443,0.99014 0.18778,2.03 0.0713,0.8847 0.48955,1.2648 0.61256,1.35819 0,0.0341 0,0.0673 -5.6e-4,0.0999 -0.003,0.56285 -0.17524,1.11366 -0.5016,1.57208 -10e-4,0.003 -0.003,0.004 -0.004,0.007 -0.28218,0.39967 -0.59901,0.77273 -0.93291,1.12822 -0.0854,0.0869 -0.16569,0.17875 -0.25506,0.2616 l -0.26411,0.25356 c -0.004,-0.004 -0.003,-0.003 -0.007,-0.006 0.0803,-0.1426 0.15264,-0.28469 0.21791,-0.42427 v 5.6e-4 c 1.80513,-1.46421 0.47657,-3.53488 0.47657,-3.53488 0.12,0.48905 -0.28821,0.95299 -0.61357,1.94414 -0.27716,0.84303 -0.0392,1.35517 0.0377,1.48924 -0.0532,0.12753 -0.10444,0.24452 -0.15265,0.34846 -0.11699,0.25507 -0.2892,0.48202 -0.51063,0.65474 -7.2e-4,7.1e-4 -0.003,0.002 -0.004,0.003 -0.38059,0.30378 -0.77725,0.58746 -1.19651,0.8335 -0.24402,0.14409 -0.49306,0.27916 -0.74662,0.40519 0.10594,-0.10845 0.20385,-0.21841 0.29373,-0.32787 l -5e-4,5.7e-4 c 1.72924,-0.79785 1.09257,-2.71035 1.09257,-2.71035 -0.003,0.41222 -0.42076,0.69842 -0.87968,1.41944 -0.39063,0.61307 -0.30528,1.06798 -0.27113,1.18999 -0.0562,0.0748 -0.10997,0.1441 -0.16018,0.20687 -0.16519,0.20686 -0.37808,0.37205 -0.6216,0.47498 -10e-4,5.7e-4 -0.003,0.001 -0.004,0.001 -0.44788,0.18778 -0.9068,0.34595 -1.37326,0.47549 l -0.006,10e-4 h -7.1e-4 c -0.12653,0.0361 -0.21992,0.14862 -0.22293,0.28017 -0.005,0.22494 0.20285,0.36804 0.39716,0.30879 0.49006,-0.14963 0.97057,-0.32938 1.43702,-0.53875 0.46595,-0.21189 0.91483,-0.45893 1.34715,-0.73006 0.26058,-0.16268 0.51264,-0.33892 0.75666,-0.5247 0.33139,-0.25256 0.72956,-0.40268 1.1453,-0.43833 h -7.1e-4 c 2.17008,0.83298 3.30082,-1.35217 3.30082,-1.35217 -0.36352,0.34846 -0.96956,0.22645 -1.99084,0.43935 -0.86864,0.18075 -1.194,0.64268 -1.27132,0.77624 -0.20888,0.0271 -0.39365,0.0442 -0.54579,0.0557 0.13808,-0.12151 0.27164,-0.24804 0.4062,-0.37306 l 0.26863,-0.27164 c 0.0909,-0.0889 0.17272,-0.18678 0.25908,-0.27967 0.33842,-0.37959 0.65826,-0.77676 0.94044,-1.19903 0.006,-0.009 0.0115,-0.0171 0.0171,-0.0256 0.13857,-0.20687 0.32787,-0.37407 0.5498,-0.48704 0.0361,-0.0181 0.0718,-0.0371 0.10745,-0.0557 l -5.7e-4,5e-4 c 2.32273,-0.0869 2.50298,-2.54065 2.50298,-2.54065 -0.19682,0.46295 -0.80236,0.58898 -1.65744,1.18597"
           style="fill:#c0c0c0;fill-opacity:1;fill-rule:nonzero;stroke:none;stroke-width:0.00502103"
           id="path7053-6-1-9-9-6-6" />
        <path
           d="m 9.4439723,189.25625 c 0.7280397,0.50763 0.8455397,1.06044 0.8641197,1.21358 0.11548,0.0683 0.22293,0.12854 0.32135,0.18177 -0.15415,-0.25708 -0.29976,-0.51868 -0.43432,-0.7858 -0.2229397,-0.45591 -0.4157497,-0.92487 -0.5784297,-1.40438 -0.0181,-0.0527 -0.0356,-0.10544 -0.0522,-0.15816 -0.12653,-0.39465 -0.3093,-0.76922 -0.55331,-1.10362 -0.016,-0.0221 -0.0321,-0.0447 -0.0482,-0.0668 l 5e-4,4.9e-4 c -2.03904,-1.11617 -1.10312,-3.3917 -1.10312,-3.3917 -0.0311,0.5026 0.4539,0.88571 0.95249,1.80205 0.42377,0.77976 0.28168,1.32655 0.22997,1.47216 0.10443,0.16067 0.20183,0.30176 0.28619,0.41876 -0.0331,-0.14662 -0.0643,-0.29374 -0.0929,-0.44085 -0.0969,-0.49608 -0.15064,-0.99969 -0.17524,-1.5033 l -0.008,-0.18929 c -0.004,-0.0628 -0.006,-0.12552 -0.004,-0.18879 l 5e-4,-0.37809 c 0.003,-0.12603 0.011,-0.25155 0.016,-0.37757 0.004,-0.0628 0.004,-0.12603 0.01,-0.1888 l 0.0176,-0.18778 v 0 c 0.0115,-0.12453 0.004,-0.25055 -0.0206,-0.37307 l -0.14561,-0.71901 v 5e-4 c -1.48623,-1.78698 0.21941,-3.55991 0.21941,-3.55991 -0.21289,0.45591 0.0974,0.99065 0.22445,2.02599 0.10795,0.88119 -0.22494,1.3371 -0.32687,1.45358 0.0422,0.20888 0.0859,0.39114 0.12402,0.53976 l 0.0166,-0.11698 c 0.0145,-0.12503 0.0437,-0.24754 0.0663,-0.37156 l 0.0356,-0.18478 c 0.0115,-0.0618 0.0236,-0.12351 0.0397,-0.18426 0.0608,-0.24403 0.11649,-0.48906 0.19431,-0.72856 l 0.0542,-0.18025 0.0271,-0.0899 0.0316,-0.0889 0.12703,-0.35448 c 0.0798,-0.20587 0.16369,-0.41073 0.2535597,-0.61257 0.16118,-0.36252 0.2611,-0.75014 0.28369,-1.1458 0.005,-0.0919 0.0121,-0.18226 0.0211,-0.27063 l -5e-4,4.9e-4 c -0.7998597,-2.18213 1.40237,-3.27973 1.40237,-3.27973 -0.35398,0.358 -0.24151,0.96605 -0.46897,1.98381 -0.19431,0.86612 -0.66076,1.18396 -0.79583,1.25978 -0.0427,0.29624 -0.0658,0.54427 -0.0778,0.718 0.004,-0.006 0.006,-0.0125 0.0101,-0.0186 l 0.0894,-0.1657 c 0.0291,-0.0547 0.0638,-0.10745 0.0954,-0.16117 l 0.19431,-0.32134 0.20988,-0.31131 c 0.0351,-0.0517 0.0693,-0.10444 0.10544,-0.15514 l 0.11197,-0.15014 c 0.11599,-0.16067 0.2375,-0.31581 0.36402,-0.46796 l -4.9e-4,5.1e-4 c 0.17624,-0.22344 0.41725,-0.54529 0.62662,-0.77826 0.0984,-0.10896 0.18478,-0.22896 0.24754,-0.36202 0.91633,-1.93108 3.15371,-1.38831 3.15371,-1.38831 -0.50211,0.0321 -0.82245,0.56134 -1.6695,1.16939 -0.6698,0.48102 -1.20052,0.4524 -1.39383,0.41926 -0.0231,0.008 -0.0512,0.0166 -0.0743,0.0241 l -0.25657,0.26812 c -0.33389,0.36804 -0.65474,0.74913 -0.93441,1.15986 l -0.10796,0.15163 c -0.0346,0.0517 -0.0673,0.10444 -0.10092,0.15665 l -0.19933,0.31432 -0.0844,0.14762 c 0.22244,-0.18879 0.44637,-0.35348 0.6683,-0.49608 l -7.1e-4,5e-4 c 1.20656,-1.9868 3.4384,-0.95046 3.4384,-0.95046 -0.50109,-0.0532 -0.90579,0.41423 -1.84321,0.87115 -0.79785,0.38862 -1.33761,0.22192 -1.48121,0.16368 -0.31933,0.18728 -0.58495,0.37055 -0.73859,0.48102 -0.0969,0.0698 -0.17875,0.15967 -0.23247,0.26611 -5e-4,5e-4 -7.2e-4,7.1e-4 -7.2e-4,10e-4 l -0.0838,0.1662 c -0.23146,0.43834 -0.41775,0.89876 -0.5854497,1.36421 l -0.11598,0.35197 -0.0292,0.0884 -0.0241,0.0894 -0.0492,0.17876 c -0.0703,0.23699 -0.1185,0.48001 -0.17223,0.72102 -0.0145,0.0598 -0.0246,0.121 -0.0346,0.18175 l -5e-4,0.004 c 0.15064,-0.23146 0.3088,-0.44285 0.47047,-0.63415 l -4.9e-4,5e-4 c 0.5723997,-2.25293 3.0095997,-1.91452 3.0095997,-1.91452 -0.49457,0.0954 -0.74462,0.66077 -1.50782,1.37174 -0.64921,0.60554 -1.21408,0.60403 -1.36822,0.58998 -0.1747297,0.19029 -0.3178297,0.36051 -0.4237797,0.49206 -0.14661,0.18276 -0.24352,0.40268 -0.2646,0.63566 -5e-4,0.001 -5e-4,0.003 -5e-4,0.004 l -0.0422,0.36753 -0.0105,0.0919 -0.006,0.0924 -0.012,0.18478 -0.012,0.18427 c -0.004,0.0618 -0.004,0.12301 -0.006,0.18477 -10e-4,0.12352 -0.006,0.24654 -0.006,0.36955 l 0.009,0.36955 c 4.9e-4,0.0613 0.004,0.12302 0.009,0.18427 l 0.0125,0.18427 c 0.0201,0.26561 0.0482,0.53123 0.0869,0.79483 0.0527,-0.22142 0.11398,-0.43231 0.18326,-0.63064 l -4.9e-4,5e-4 c -0.26913,-2.30867 2.1279097,-2.86249 2.1279097,-2.86249 -0.42779,0.26561 -0.45942,0.8832 -0.91835,1.81962 -0.39063,0.79734 -0.9188497,0.99768 -1.0674697,1.03985 -0.0572,0.1436 -0.10645,0.27616 -0.14762,0.39365 -0.10142,0.28871 -0.12301,0.60052 -0.0567,0.89877 0,0.001 5e-4,0.004 7.1e-4,0.004 0.10545,0.48001 0.23449,0.9545 0.40521,1.41443 0.1696997,0.46042 0.3680297,0.9093 0.5939797,1.34362 0.0678,0.12553 0.13808,0.24955 0.20988,0.37306 -0.0417,-0.26059 -0.0648,-0.51114 -0.0743,-0.75165 v 7.2e-4 c -1.0965897,-2.04959 0.9309,-3.44343 0.9309,-3.44343 -0.30076,0.4042 -0.10394,0.99015 -0.18779,2.03001 -0.0713,0.8847 -0.48905,1.26479 -0.61206,1.35818 -5e-4,0.0341 -5e-4,0.0673 0,0.0999 0.004,0.56286 0.17573,1.11367 0.5016,1.57209 10e-4,0.003 0.003,0.004 0.005,0.007 0.28167,0.39967 0.5985,0.77274 0.9324,1.12823 0.0854,0.0869 0.16569,0.17875 0.25557,0.26159 l 0.26361,0.25357 c 0.004,-0.004 0.003,-0.003 0.007,-0.006 -0.0803,-0.1426 -0.15264,-0.28469 -0.21791,-0.42428 v 5.7e-4 c -1.80506,-1.46413 -0.47599,-3.53481 -0.47599,-3.53481 -0.12051,0.48905 0.2877,0.953 0.61306,1.94414 0.27767,0.84304 0.0397,1.35518 -0.0376,1.48925 0.0532,0.12753 0.10494,0.24452 0.15264,0.34846 0.11698,0.25506 0.28921,0.48201 0.51064,0.65473 0.001,7.1e-4 0.003,0.002 0.004,0.003 0.38059,0.30378 0.77726,0.58746 1.19701,0.83349 0.24352,0.14411 0.49257,0.27917 0.74613,0.4052 -0.10544,-0.10845 -0.20385,-0.21842 -0.29373,-0.32787 l 5e-4,5.7e-4 c -1.72926,-0.79797 -1.09259,-2.71049 -1.09259,-2.71049 0.003,0.41223 0.42126,0.69843 0.87968,1.41945 0.39064,0.61307 0.30528,1.06797 0.27114,1.18998 0.0562,0.0748 0.10996,0.14411 0.16017,0.20687 0.16519,0.20686 0.37808,0.37205 0.62161,0.47499 10e-4,5.7e-4 0.003,0.001 0.004,0.001 0.44738,0.18778 0.90629,0.34594 1.37275,0.47548 l 0.006,10e-4 h 7.1e-4 c 0.12653,0.0361 0.21992,0.14863 0.22293,0.28018 0.005,0.22494 -0.20285,0.36804 -0.39716,0.30879 -0.49005,-0.14962 -0.97056,-0.32938 -1.43702,-0.53876 -0.46595,-0.21189 -0.91483,-0.45892 -1.34714,-0.73006 -0.26059,-0.16268 -0.51265,-0.33891 -0.75667,-0.52469 -0.33138,-0.25256 -0.72955,-0.40269 -1.1453,-0.43834 h 7.2e-4 c -2.17009,0.83299 -3.3008197,-1.35216 -3.3008197,-1.35216 0.36351,0.34846 0.9695497,0.22645 1.9908297,0.43934 0.86914,0.18075 1.194,0.64269 1.27183,0.77625 0.20887,0.0271 0.39364,0.0442 0.54528,0.0557 -0.13758,-0.12151 -0.27164,-0.24805 -0.4062,-0.37307 l -0.26812,-0.27164 c -0.0914,-0.0889 -0.17273,-0.18678 -0.25959,-0.27966 -0.33841,-0.3796 -0.65826,-0.77676 -0.94044,-1.19902 -0.006,-0.009 -0.0115,-0.0171 -0.0171,-0.0256 -0.13858,-0.20687 -0.32788,-0.37407 -0.5498,-0.48704 -0.0361,-0.0181 -0.0718,-0.0372 -0.10745,-0.0557 l 5e-4,5e-4 c -2.3222297,-0.0869 -2.5029897,-2.54064 -2.5029897,-2.54064 0.19682,0.46294 0.80236,0.58897 1.65744,1.18597"
           style="fill:#c0c0c0;fill-opacity:1;fill-rule:nonzero;stroke:none;stroke-width:0.00502103"
           id="path7055-3-7-5-7-1-0" />
      </g>
    </g>
  </g>
</svg>
